PathFileType	4	(X/Y/Z)	C:\Users\86182\Documents\cortex\Trimmed_M3_L5.trc
DataRate	CameraRate	NumFrames	NumMarkers	Units	OrigDataRate	OrigDataStartFrame	OrigNumFrames
100.00	100.00	       98	2	mm	100.00	721	       901
Frame#	Time	gripper			box			
		X1	Y1	Z1	X2	Y2	Z2	

721	7.200	273.46948	149.81435	292.83569	274.65280	148.16347	157.27539	
722	7.210	273.48730	149.81316	292.82565	274.68521	148.13100	157.26331	
723	7.220	273.47614	149.81390	292.83191	274.69489	148.12796	157.27084	
724	7.230	273.48947	149.81302	292.82440	274.70615	148.11842	157.26961	
725	7.240	273.49612	149.81258	292.82068	274.66919	148.14279	157.26213	
726	7.250	273.47171	149.81419	292.83441	274.71658	148.12000	157.25752	
727	7.260	273.48730	149.81316	292.82565	274.70364	148.11313	157.23468	
728	7.270	273.49829	149.81244	292.81946	274.72769	148.11469	157.25755	
729	7.280	273.49393	149.81273	292.82193	274.72134	148.11296	157.23499	
730	7.290	273.48285	149.81346	292.82816	274.70889	148.13055	157.25958	
731	7.300	273.49829	149.81244	292.81946	274.71881	148.11499	157.26337	
732	7.310	273.50494	149.81198	292.81573	274.71661	148.11200	157.26685	
733	7.320	273.50269	149.81215	292.81699	274.72266	148.10765	157.26176	
734	7.330	273.49612	149.81258	292.82068	274.72949	148.11154	157.22641	
735	7.340	273.48059	149.81361	292.82941	274.72473	148.11479	157.25949	
736	7.350	273.48730	149.81316	292.82565	274.71210	148.11823	157.26570	
737	7.360	273.48059	149.81361	292.82941	274.67590	148.14397	157.27289	
738	7.370	273.47614	149.81390	292.83191	274.70239	148.12158	157.27002	
739	7.380	273.47839	149.81377	292.83066	274.67447	148.14177	157.26733	
740	7.390	273.44818	149.81371	292.85074	274.70615	148.11842	157.26961	
741	7.400	273.46854	149.81407	292.83670	274.68451	148.12990	157.26053	
742	7.410	273.48486	149.81281	292.82779	274.70615	148.11842	157.26961	
743	7.420	273.48059	149.81361	292.82941	274.66055	148.15692	157.27457	
744	7.430	273.50052	149.81229	292.81821	274.74771	148.10500	157.25053	
745	7.440	273.49170	149.81287	292.82318	274.67972	148.14073	157.27248	
746	7.450	273.49838	149.81009	292.82291	274.74417	148.10768	157.23918	
747	7.460	273.50934	149.81015	292.81555	274.70856	148.11302	157.26370	
748	7.470	273.50052	149.81229	292.81821	274.72626	148.10869	157.26254	
749	7.480	273.50269	149.81215	292.81699	274.70380	148.12767	157.26500	
750	7.490	273.50494	149.81198	292.81573	274.73026	148.10887	157.23982	
751	7.500	273.50269	149.81215	292.81699	274.68732	148.13435	157.27167	
752	7.510	273.48947	149.81302	292.82440	274.69897	148.11600	157.25613	
753	7.520	273.44250	149.81320	292.85526	274.68887	148.13173	157.25227	
754	7.530	273.47232	149.81320	292.83551	274.69110	148.13113	157.27124	
755	7.540	273.47906	149.81276	292.83173	274.67889	148.14386	157.27095	
756	7.550	273.47391	149.81406	292.83319	274.69659	148.12143	157.26212	
757	7.560	273.48572	149.81076	292.83029	274.68732	148.13435	157.27167	
758	7.570	273.48285	149.81346	292.82816	274.65610	148.15036	157.25769	
759	7.580	273.47614	149.81390	292.83191	274.66388	148.14381	157.25688	
760	7.590	273.47839	149.81377	292.83066	274.68253	148.14462	157.25993	
761	7.600	273.48730	149.81316	292.82565	274.67224	148.13815	157.24693	
762	7.610	273.49612	149.81258	292.82068	274.65759	148.15256	157.26334	
763	7.620	273.47171	149.81419	292.83441	274.68994	148.14212	157.24854	
764	7.630	273.50058	149.80916	292.82281	274.70016	148.12663	157.26418	
765	7.640	273.47839	149.81377	292.83066	274.67209	148.14717	157.27330	
766	7.650	273.47614	149.81390	292.83191	274.69522	148.11919	157.25655	
767	7.660	273.48059	149.81361	292.82941	274.69073	148.14349	157.26315	
768	7.670	273.49301	149.81245	292.82294	274.67087	148.13623	157.25328	
769	7.680	273.49176	149.80817	292.83017	274.72104	148.10587	157.26801	
770	7.690	273.48730	149.80923	292.83151	274.69110	148.13113	157.27124	
771	7.700	273.48282	149.81033	292.83286	274.72351	148.10835	157.25272	
772	7.710	273.49612	149.81258	292.82068	274.71661	148.11200	157.26685	
773	7.720	273.48730	149.81316	292.82565	274.70355	148.11354	157.24663	
774	7.730	273.48505	149.81175	292.82925	274.67889	148.14386	157.27095	
775	7.740	273.46948	149.81435	292.83569	274.66751	148.14937	157.27095	
776	7.750	273.48730	149.81316	292.82565	274.69452	148.14000	157.25093	
777	7.760	273.46448	149.81366	292.84003	274.66171	148.16318	157.26955	
778	7.770	273.47614	149.81390	292.83191	274.66605	148.14716	157.26534	
779	7.780	273.46805	149.81308	292.83853	274.63812	148.16983	157.24414	
780	7.790	273.44547	149.81458	292.85126	274.65533	148.14928	157.25485	
781	7.800	273.48730	149.81316	292.82565	274.68555	148.15814	157.25279	
782	7.810	273.45801	149.81459	292.84290	274.64819	148.16563	157.27301	
783	7.820	273.46335	149.81287	292.84195	274.68097	148.12428	157.24646	
784	7.830	273.49170	149.81287	292.82318	274.67972	148.14073	157.27248	
785	7.840	273.47171	149.81419	292.83441	274.69339	148.12994	157.26654	
786	7.850	273.47614	149.81235	292.83429	274.69623	148.13406	157.26582	
787	7.860	273.47015	149.81334	292.83673	274.69946	148.12553	157.26140	
788	7.870	273.50290	149.80586	292.82626	274.67972	148.14073	157.27248	
789	7.880	273.48816	149.80782	292.83307	274.69489	148.12796	157.27084	
790	7.890	273.46634	149.81421	292.83795	274.69110	148.13113	157.27124	
791	7.900	273.49179	149.80737	292.83136	274.71423	148.12506	157.25169	
792	7.910	273.46341	149.81458	292.83936	274.70575	148.13425	157.23911	
793	7.920	273.47391	149.81406	292.83319	274.67569	148.12526	157.24115	
794	7.930	273.48947	149.81302	292.82440	274.66354	148.15681	157.27263	
795	7.940	273.49173	149.81131	292.82550	274.64896	148.16672	157.27582	
796	7.950	273.48059	149.81361	292.82941	274.70728	148.13675	157.25652	
797	7.960	273.48730	149.81316	292.82565	274.67136	148.14610	157.27051	
798	7.970	273.47391	149.81406	292.83319	274.70654	148.10966	157.25537	
799	7.980	273.49664	149.80716	292.82846	274.69623	148.13376	157.25400	
800	7.990	273.47522	149.81363	292.83295	274.69281	148.12462	157.26253	
801	8.000	273.44647	149.81483	292.85019	274.69046	148.12936	157.24469	
802	8.010	273.47305	149.81377	292.83420	274.70303	148.10815	157.24260	
803	8.020	273.48730	149.81316	292.82565	274.71130	148.12131	157.26416	
804	8.030	273.47171	149.81419	292.83441	274.73438	148.11143	157.25519	
805	8.040	273.48929	149.80542	292.83591	274.69104	148.13019	157.23557	
806	8.050	273.50934	149.81015	292.81555	274.70239	148.12158	157.27002	
807	8.060	273.47839	149.81377	292.83066	274.73026	148.10887	157.23982	
808	8.070	273.49170	149.81287	292.82318	274.67856	148.12975	157.25249	
809	8.080	273.49829	149.81244	292.81946	274.70047	148.14006	157.25888	
810	8.090	273.49838	149.80930	292.82407	274.68185	148.14377	157.26900	
811	8.100	273.48947	149.81302	292.82440	274.69864	148.12477	157.27043	
812	8.110	273.48300	149.80832	292.83572	274.70911	148.12599	157.24651	
813	8.120	273.47186	149.81142	292.83847	274.70175	148.12047	157.26726	
814	8.130	273.46844	149.81093	292.84149	274.68311	148.12767	157.25493	
815	8.140	273.46042	149.81323	292.84335	274.69110	148.13113	157.27124	
816	8.150	273.43033	149.81339	292.86307	274.66772	148.14059	157.25650	
817	8.160	273.44458	149.81429	292.85226	274.68381	148.12877	157.25771	
818	8.170	273.45374	149.81540	292.84454	274.66440	148.15367	157.27412	
